<svg width="6" height="10" viewBox="0 0 6 10" fill="none" xmlns="http://www.w3.org/2000/svg">
<path d="M2.72654 8.34493e-07C2.62905 0.00410355 2.51633 0.0473937 2.44527 0.119508L0.12699 2.47249C-0.00589331 2.6319 -0.060683 2.93769 0.0929371 3.11587C0.244273 3.29138 0.537633 3.28615 0.689534 3.11135L2.31744 1.45695L2.31744 9.5588C2.31744 9.80242 2.50064 10 2.72656 10C2.95248 10 3.13568 9.80243 3.13568 9.5588L3.13568 1.45695L4.76358 3.11135C4.90341 3.26194 5.20723 3.28974 5.36018 3.11587C5.51323 2.9421 5.46434 2.62543 5.32603 2.47249L3.00776 0.119508C2.92843 0.0389823 2.8353 -0.00020421 2.72648 8.34496e-07L2.72654 8.34493e-07Z" fill="#3A3F6C"/>
</svg>
