<svg width="6" height="10" viewBox="0 0 6 10" fill="none" xmlns="http://www.w3.org/2000/svg">
<path d="M2.72654 10C2.62905 9.9959 2.51633 9.95261 2.44527 9.88049L0.12699 7.52751C-0.00589331 7.3681 -0.060683 7.06231 0.0929371 6.88413C0.244273 6.70862 0.537633 6.71385 0.689534 6.88865L2.31744 8.54305L2.31744 0.4412C2.31744 0.197575 2.50064 1.09307e-07 2.72656 1.19182e-07C2.95248 1.29057e-07 3.13568 0.197567 3.13568 0.4412L3.13568 8.54305L4.76358 6.88865C4.90341 6.73806 5.20723 6.71026 5.36018 6.88413C5.51323 7.0579 5.46434 7.37457 5.32603 7.52751L3.00776 9.88049C2.92843 9.96102 2.8353 10.0002 2.72648 10L2.72654 10Z" fill="#3A3F6C"/>
</svg>
