<svg width="12" height="12" viewBox="0 0 12 12" fill="none" xmlns="http://www.w3.org/2000/svg">
<path d="M4.33519 6.62033C4.33519 6.47 4.2105 6.34822 4.05664 6.34822H3.08461C2.93093 6.34822 2.80621 6.47 2.80621 6.62033V7.57068C2.80621 7.7212 2.93093 7.84303 3.08461 7.84303H4.05664C4.2105 7.84303 4.33519 7.7212 4.33519 7.57068V6.62033Z" fill="#3A3F6C"/>
<path d="M6.76443 6.62033C6.76443 6.47 6.63971 6.34822 6.48615 6.34822H5.514C5.36032 6.34822 5.2356 6.47 5.2356 6.62033V7.57068C5.2356 7.7212 5.36032 7.84303 5.514 7.84303H6.48615C6.63971 7.84303 6.76443 7.7212 6.76443 7.57068V6.62033Z" fill="#3A3F6C"/>
<path d="M9.19379 6.62033C9.19379 6.47 9.06907 6.34822 8.91539 6.34822H7.94336C7.7895 6.34822 7.66481 6.47 7.66481 6.62033V7.57068C7.66481 7.7212 7.7895 7.84303 7.94336 7.84303H8.91539C9.06907 7.84303 9.19379 7.7212 9.19379 7.57068V6.62033Z" fill="#3A3F6C"/>
<path d="M4.33519 8.99595C4.33519 8.84538 4.2105 8.7237 4.05664 8.7237H3.08461C2.93093 8.7237 2.80621 8.84538 2.80621 8.99595V9.94614C2.80621 10.0966 2.93093 10.2184 3.08461 10.2184H4.05664C4.2105 10.2184 4.33519 10.0965 4.33519 9.94614V8.99595Z" fill="#3A3F6C"/>
<path d="M6.76443 8.99595C6.76443 8.84538 6.63971 8.7237 6.48615 8.7237H5.514C5.36032 8.7237 5.2356 8.84538 5.2356 8.99595V9.94614C5.2356 10.0966 5.36032 10.2184 5.514 10.2184H6.48615C6.63971 10.2184 6.76443 10.0965 6.76443 9.94614V8.99595Z" fill="#3A3F6C"/>
<path d="M9.19379 8.99595C9.19379 8.84538 9.06907 8.7237 8.91552 8.7237H7.94336C7.7895 8.7237 7.66481 8.84538 7.66481 8.99595V9.94614C7.66481 10.0966 7.7895 10.2184 7.94336 10.2184H8.91552C9.06907 10.2184 9.19379 10.0965 9.19379 9.94614V8.99595Z" fill="#3A3F6C"/>
<path d="M10.9319 1.33615V2.78775C10.9319 3.44385 10.3876 3.97257 9.71667 3.97257H8.95008C8.27915 3.97257 7.72761 3.44385 7.72761 2.78775V1.33094H4.27239V2.78775C4.27239 3.44385 3.72087 3.97257 3.05004 3.97257H2.2833C1.61244 3.97257 1.06814 3.44385 1.06814 2.78775V1.33615C0.481805 1.35344 0 1.82785 0 2.41097V10.918C0 11.5121 0.492439 12 1.09999 12H10.9C11.5067 12 12 11.5111 12 10.918V2.41097C12 1.82785 11.5182 1.35344 10.9319 1.33615ZM10.5758 10.3883C10.5758 10.645 10.3629 10.8533 10.1003 10.8533H1.87878C1.61611 10.8533 1.40323 10.645 1.40323 10.3883V5.99406C1.40323 5.73723 1.61609 5.52894 1.87878 5.52894H10.1003C10.3629 5.52894 10.5758 5.73723 10.5758 5.99406L10.5758 10.3883Z" fill="#3A3F6C"/>
<path d="M2.28061 3.19437H3.03888C3.26903 3.19437 3.45565 3.01216 3.45565 2.78711V0.407405C3.45565 0.182328 3.26903 0 3.03888 0H2.28061C2.05043 0 1.86384 0.182328 1.86384 0.407405V2.78711C1.86384 3.01216 2.05043 3.19437 2.28061 3.19437Z" fill="#3A3F6C"/>
<path d="M8.94033 3.19437H9.6986C9.9286 3.19437 10.1152 3.01216 10.1152 2.78711V0.407405C10.1152 0.182328 9.92863 0 9.6986 0H8.94033C8.7102 0 8.52359 0.182328 8.52359 0.407405V2.78711C8.52359 3.01216 8.7102 3.19437 8.94033 3.19437Z" fill="#3A3F6C"/>
</svg>
