<svg width="14" height="14" viewBox="0 0 14 14" fill="none" xmlns="http://www.w3.org/2000/svg">
<path d="M12.25 0H1.75C1.28587 0 0.840752 0.184374 0.512563 0.512563C0.184374 0.840752 0 1.28587 0 1.75V12.25C0 12.7141 0.184374 13.1592 0.512563 13.4874C0.840752 13.8156 1.28587 14 1.75 14H12.25C12.7141 14 13.1592 13.8156 13.4874 13.4874C13.8156 13.1592 14 12.7141 14 12.25V1.75C14 1.28587 13.8156 0.840752 13.4874 0.512563C13.1592 0.184374 12.7141 0 12.25 0ZM0.875 3.37488C0.875 2.961 1.267 2.625 1.75 2.625H12.25C12.733 2.625 13.125 2.961 13.125 3.37488V12.3751C13.125 12.789 12.733 13.125 12.25 13.125H1.75C1.267 13.125 0.875 12.789 0.875 12.3751V3.37488Z" fill="#B8BBD1"/>
<path d="M5.83333 6.41667C6.0654 6.41667 6.28796 6.32448 6.45205 6.16039C6.61615 5.99629 6.70833 5.77373 6.70833 5.54167C6.70833 5.3096 6.61615 5.08704 6.45205 4.92295C6.28796 4.75885 6.0654 4.66667 5.83333 4.66667C5.60127 4.66667 5.37871 4.75885 5.21461 4.92295C5.05052 5.08704 4.95833 5.3096 4.95833 5.54167C4.95833 5.77373 5.05052 5.99629 5.21461 6.16039C5.37871 6.32448 5.60127 6.41667 5.83333 6.41667ZM8.45833 6.41667C8.6904 6.41667 8.91296 6.32448 9.07705 6.16039C9.24115 5.99629 9.33333 5.77373 9.33333 5.54167C9.33333 5.3096 9.24115 5.08704 9.07705 4.92295C8.91296 4.75885 8.6904 4.66667 8.45833 4.66667C8.22627 4.66667 8.00371 4.75885 7.83962 4.92295C7.67552 5.08704 7.58333 5.3096 7.58333 5.54167C7.58333 5.77373 7.67552 5.99629 7.83962 6.16039C8.00371 6.32448 8.22627 6.41667 8.45833 6.41667ZM11.0833 6.41667C11.3154 6.41667 11.538 6.32448 11.7021 6.16039C11.8661 5.99629 11.9583 5.77373 11.9583 5.54167C11.9583 5.3096 11.8661 5.08704 11.7021 4.92295C11.538 4.75885 11.3154 4.66667 11.0833 4.66667C10.8513 4.66667 10.6287 4.75885 10.4646 4.92295C10.3005 5.08704 10.2083 5.3096 10.2083 5.54167C10.2083 5.77373 10.3005 5.99629 10.4646 6.16039C10.6287 6.32448 10.8513 6.41667 11.0833 6.41667ZM3.20833 9.04167C3.4404 9.04167 3.66296 8.94948 3.82705 8.78539C3.99115 8.62129 4.08333 8.39873 4.08333 8.16667C4.08333 7.9346 3.99115 7.71204 3.82705 7.54795C3.66296 7.38385 3.4404 7.29167 3.20833 7.29167C2.97627 7.29167 2.75371 7.38385 2.58961 7.54795C2.42552 7.71204 2.33333 7.9346 2.33333 8.16667C2.33333 8.39873 2.42552 8.62129 2.58961 8.78539C2.75371 8.94948 2.97627 9.04167 3.20833 9.04167ZM5.83333 9.04167C6.0654 9.04167 6.28796 8.94948 6.45205 8.78539C6.61615 8.62129 6.70833 8.39873 6.70833 8.16667C6.70833 7.9346 6.61615 7.71204 6.45205 7.54795C6.28796 7.38385 6.0654 7.29167 5.83333 7.29167C5.60127 7.29167 5.37871 7.38385 5.21461 7.54795C5.05052 7.71204 4.95833 7.9346 4.95833 8.16667C4.95833 8.39873 5.05052 8.62129 5.21461 8.78539C5.37871 8.94948 5.60127 9.04167 5.83333 9.04167ZM8.45833 9.04167C8.6904 9.04167 8.91296 8.94948 9.07705 8.78539C9.24115 8.62129 9.33333 8.39873 9.33333 8.16667C9.33333 7.9346 9.24115 7.71204 9.07705 7.54795C8.91296 7.38385 8.6904 7.29167 8.45833 7.29167C8.22627 7.29167 8.00371 7.38385 7.83962 7.54795C7.67552 7.71204 7.58333 7.9346 7.58333 8.16667C7.58333 8.39873 7.67552 8.62129 7.83962 8.78539C8.00371 8.94948 8.22627 9.04167 8.45833 9.04167ZM11.0833 9.04167C11.3154 9.04167 11.538 8.94948 11.7021 8.78539C11.8661 8.62129 11.9583 8.39873 11.9583 8.16667C11.9583 7.9346 11.8661 7.71204 11.7021 7.54795C11.538 7.38385 11.3154 7.29167 11.0833 7.29167C10.8513 7.29167 10.6287 7.38385 10.4646 7.54795C10.3005 7.71204 10.2083 7.9346 10.2083 8.16667C10.2083 8.39873 10.3005 8.62129 10.4646 8.78539C10.6287 8.94948 10.8513 9.04167 11.0833 9.04167ZM3.20833 11.6667C3.4404 11.6667 3.66296 11.5745 3.82705 11.4104C3.99115 11.2463 4.08333 11.0237 4.08333 10.7917C4.08333 10.5596 3.99115 10.337 3.82705 10.1729C3.66296 10.0089 3.4404 9.91667 3.20833 9.91667C2.97627 9.91667 2.75371 10.0089 2.58961 10.1729C2.42552 10.337 2.33333 10.5596 2.33333 10.7917C2.33333 11.0237 2.42552 11.2463 2.58961 11.4104C2.75371 11.5745 2.97627 11.6667 3.20833 11.6667ZM5.83333 11.6667C6.0654 11.6667 6.28796 11.5745 6.45205 11.4104C6.61615 11.2463 6.70833 11.0237 6.70833 10.7917C6.70833 10.5596 6.61615 10.337 6.45205 10.1729C6.28796 10.0089 6.0654 9.91667 5.83333 9.91667C5.60127 9.91667 5.37871 10.0089 5.21461 10.1729C5.05052 10.337 4.95833 10.5596 4.95833 10.7917C4.95833 11.0237 5.05052 11.2463 5.21461 11.4104C5.37871 11.5745 5.60127 11.6667 5.83333 11.6667ZM8.45833 11.6667C8.6904 11.6667 8.91296 11.5745 9.07705 11.4104C9.24115 11.2463 9.33333 11.0237 9.33333 10.7917C9.33333 10.5596 9.24115 10.337 9.07705 10.1729C8.91296 10.0089 8.6904 9.91667 8.45833 9.91667C8.22627 9.91667 8.00371 10.0089 7.83962 10.1729C7.67552 10.337 7.58333 10.5596 7.58333 10.7917C7.58333 11.0237 7.67552 11.2463 7.83962 11.4104C8.00371 11.5745 8.22627 11.6667 8.45833 11.6667Z" fill="#B8BBD1"/>
</svg>
