<svg width="15" height="15" viewBox="0 0 15 15" fill="none" xmlns="http://www.w3.org/2000/svg">
<path d="M13.4616 4.46157H10.5384V1.53838C10.5384 1.13045 10.3763 0.739086 10.0878 0.450532C9.79933 0.162104 9.40797 0 8.99991 0H1.53838C1.13045 0 0.739086 0.162093 0.450532 0.450532C0.162104 0.739093 0 1.13045 0 1.53838V8.99991C0 9.40797 0.162093 9.79934 0.450532 10.0878C0.739093 10.3763 1.13045 10.5384 1.53838 10.5384H4.46157V13.4616C4.46157 13.8695 4.62367 14.2609 4.91224 14.5495C5.20067 14.8379 5.59203 15 6.00009 15H13.4616C13.8695 15 14.2609 14.8379 14.5495 14.5495C14.8379 14.2609 15 13.8695 15 13.4616V6.00009C15 5.59203 14.8379 5.20066 14.5495 4.91224C14.2609 4.62368 13.8695 4.46157 13.4616 4.46157ZM1.15384 9.00022V1.53868C1.15384 1.32637 1.32606 1.15415 1.53838 1.15415H8.99991C9.10193 1.15415 9.19974 1.19464 9.27191 1.26681C9.34408 1.33885 9.38457 1.43666 9.38457 1.53868V9.00021C9.38457 9.10222 9.34408 9.20003 9.27191 9.2722C9.19974 9.34438 9.10193 9.38487 8.99991 9.38487H1.53838C1.32607 9.38487 1.15384 9.21267 1.15384 9.00022ZM13.8463 13.4618C13.8463 13.5638 13.8058 13.6616 13.7336 13.7337C13.6616 13.8058 13.5638 13.8463 13.4618 13.8463H6.00023C5.78779 13.8463 5.61556 13.6741 5.61556 13.4618V10.5386H9.00019C9.40825 10.5386 9.79962 10.3765 10.088 10.0879C10.3766 9.79949 10.5387 9.40813 10.5387 9.00007V5.61544H13.4619C13.5639 5.61544 13.6617 5.65593 13.7338 5.72811C13.8059 5.80028 13.8464 5.89809 13.8464 6.0001L13.8463 13.4618Z" fill="#BEC1D7"/>
</svg>
