<svg width="18" height="18" viewBox="0 0 18 18" fill="none" xmlns="http://www.w3.org/2000/svg">
<path d="M9 0C13.9629 0 18 4.03714 18 9C18 13.9629 13.9629 18 9 18C4.03714 18 0 13.9629 0 9C0 4.03714 4.03714 0 9 0ZM9 1.28571C4.7318 1.28571 1.28572 4.73187 1.28572 9C1.28572 13.2681 4.73187 16.7143 9 16.7143C13.2681 16.7143 16.7143 13.2681 16.7143 9C16.7143 4.73187 13.2681 1.28571 9 1.28571Z" fill="#BEC1D7"/>
<path d="M11.8768 7H10.2382L9.0308 8.65556L7.86037 7H6.1232L7.97125 9.45556L6 12H7.6386L8.98152 10.2L10.2752 12H12L10.0287 9.38889L11.8768 7Z" fill="#BEC1D7"/>
</svg>
