<svg width="12" height="15" viewBox="0 0 12 15" fill="none" xmlns="http://www.w3.org/2000/svg">
<path d="M5.25 7.5C5.25 7.08579 4.91421 6.75 4.5 6.75C4.08579 6.75 3.75 7.08579 3.75 7.5V10.5C3.75 10.9142 4.08579 11.25 4.5 11.25C4.91421 11.25 5.25 10.9142 5.25 10.5V7.5Z" fill="#BEC1D7"/>
<path d="M7.5 6.75C7.91421 6.75 8.25 7.08579 8.25 7.5V10.5C8.25 10.9142 7.91421 11.25 7.5 11.25C7.08579 11.25 6.75 10.9142 6.75 10.5V7.5C6.75 7.08579 7.08579 6.75 7.5 6.75Z" fill="#BEC1D7"/>
<path fill-rule="evenodd" clip-rule="evenodd" d="M9 3V2.25C9 1.00736 7.99264 0 6.75 0H5.25C4.00736 0 3 1.00736 3 2.25V3H0.75C0.335786 3 0 3.33579 0 3.75C0 4.16421 0.335786 4.5 0.75 4.5V12.75C0.75 13.9926 1.75736 15 3 15H9C10.2426 15 11.25 13.9926 11.25 12.75V4.5C11.6642 4.5 12 4.16421 12 3.75C12 3.33579 11.6642 3 11.25 3H9ZM2.25 4.5V12.75C2.25 13.1642 2.58579 13.5 3 13.5H9C9.41421 13.5 9.75 13.1642 9.75 12.75V4.5H2.25ZM4.5 3V2.25C4.5 1.83579 4.83579 1.5 5.25 1.5H6.75C7.16421 1.5 7.5 1.83579 7.5 2.25V3H4.5Z" fill="#BEC1D7"/>
</svg>
