<svg width="16" height="16" viewBox="0 0 16 16" fill="none" xmlns="http://www.w3.org/2000/svg">
<path fill-rule="evenodd" clip-rule="evenodd" d="M6.19554 0.862081C6.32054 0.737048 6.49009 0.666786 6.6669 0.666748H12.0005C12.531 0.666748 13.0397 0.877462 13.4148 1.25253C13.7899 1.62761 14.0006 2.13632 14.0006 2.66675V13.3334C14.0006 13.8638 13.7899 14.3726 13.4148 14.7476C13.0397 15.1227 12.531 15.3334 12.0005 15.3334H4.0001C3.46964 15.3334 2.96091 15.1227 2.58582 14.7476C2.21072 14.3726 2 13.8638 2 13.3334V5.33342C2.00004 5.15662 2.0703 4.98708 2.19534 4.86208L6.19554 0.862081ZM12.0005 2.00008H7.3336V5.33342C7.3336 5.51023 7.26336 5.67979 7.13833 5.80482C7.0133 5.92984 6.84372 6.00008 6.6669 6.00008H3.3334V13.3334C3.3334 13.5102 3.40364 13.6798 3.52867 13.8048C3.6537 13.9298 3.82328 14.0001 4.0001 14.0001H12.0005C12.1773 14.0001 12.3469 13.9298 12.4719 13.8048C12.597 13.6798 12.6672 13.5102 12.6672 13.3334V2.66675C12.6672 2.48994 12.597 2.32037 12.4719 2.19534C12.3469 2.07032 12.1773 2.00008 12.0005 2.00008ZM4.27611 4.66675H6.0002V2.94275L4.27611 4.66675ZM4.6668 8.66675C4.6668 8.48994 4.73704 8.32037 4.86207 8.19534C4.9871 8.07032 5.15668 8.00008 5.3335 8.00008H10.6671C10.8439 8.00008 11.0135 8.07032 11.1385 8.19534C11.2636 8.32037 11.3338 8.48994 11.3338 8.66675C11.3338 8.84356 11.2636 9.01313 11.1385 9.13815C11.0135 9.26318 10.8439 9.33342 10.6671 9.33342H5.3335C5.15668 9.33342 4.9871 9.26318 4.86207 9.13815C4.73704 9.01313 4.6668 8.84356 4.6668 8.66675ZM4.6668 11.3334C4.6668 11.1566 4.73704 10.987 4.86207 10.862C4.9871 10.737 5.15668 10.6667 5.3335 10.6667H10.6671C10.8439 10.6667 11.0135 10.737 11.1385 10.862C11.2636 10.987 11.3338 11.1566 11.3338 11.3334C11.3338 11.5102 11.2636 11.6798 11.1385 11.8048C11.0135 11.9298 10.8439 12.0001 10.6671 12.0001H5.3335C5.15668 12.0001 4.9871 11.9298 4.86207 11.8048C4.73704 11.6798 4.6668 11.5102 4.6668 11.3334Z" fill="#9CA2B8"/>
</svg>
