<svg width="16" height="16" viewBox="0 0 16 16" fill="none" xmlns="http://www.w3.org/2000/svg">
<path d="M12.6667 7.99975C12.298 7.99975 12 8.29843 12 8.66644V13.9999C12 14.3673 11.7013 14.6666 11.3333 14.6666H2C1.632 14.6666 1.33333 14.3673 1.33333 13.9999V4.66631C1.33333 4.29897 1.632 3.99962 2 3.99962H7.33333C7.702 3.99962 8 3.70095 8 3.33294C8 2.96493 7.702 2.66625 7.33333 2.66625H2C0.897333 2.66625 0 3.56361 0 4.66631V13.9999C0 15.1026 0.897333 16 2 16H11.3333C12.436 16 13.3333 15.1026 13.3333 13.9999V8.66644C13.3333 8.29776 13.0353 7.99975 12.6667 7.99975Z" fill="#BEC1D7"/>
<path d="M6.25067 7.3924C6.204 7.43907 6.17267 7.4984 6.15933 7.5624L5.688 9.91981C5.666 10.0291 5.70067 10.1418 5.77933 10.2212C5.84267 10.2845 5.928 10.3185 6.01533 10.3185C6.03667 10.3185 6.05867 10.3165 6.08067 10.3118L8.43733 9.84047C8.50267 9.82714 8.562 9.79581 8.608 9.74914L13.8827 4.47431L11.526 2.11757L6.25067 7.3924Z" fill="#BEC1D7"/>
<path d="M15.512 0.487515C14.862 -0.162505 13.8047 -0.162505 13.1553 0.487515L12.2327 1.41021L14.5893 3.76695L15.512 2.84426C15.8267 2.53025 16 2.11157 16 1.66622C16 1.22087 15.8267 0.802192 15.512 0.487515Z" fill="#BEC1D7"/>
</svg>
