<svg width="18" height="18" viewBox="0 0 18 18" fill="none" xmlns="http://www.w3.org/2000/svg">
<path d="M9.01029 7.7051C9.18047 7.70783 9.34276 7.77785 9.46143 7.90011C9.5801 8.02222 9.64538 8.18653 9.64309 8.35687V12.8569C9.64553 13.0289 9.5788 13.1948 9.45798 13.3173C9.33716 13.4399 9.17228 13.5088 9.00023 13.5088C8.82803 13.5088 8.66316 13.4399 8.54233 13.3173C8.42151 13.1948 8.35493 13.0289 8.35736 12.8569V8.35687C8.35492 8.1831 8.42294 8.01578 8.54606 7.89295C8.66903 7.77026 8.8365 7.70238 9.01029 7.7051Z" fill="#BEC1D7"/>
<path fill-rule="evenodd" clip-rule="evenodd" d="M8.35714 5.14286C8.35714 5.49786 8.64499 5.78571 9 5.78571C9.35501 5.78571 9.64286 5.49786 9.64286 5.14286C9.64286 4.78785 9.35501 4.5 9 4.5C8.64499 4.5 8.35714 4.78785 8.35714 5.14286Z" fill="#BEC1D7"/>
<path d="M9 0C13.9629 0 18 4.03714 18 9C18 13.9629 13.9629 18 9 18C4.03714 18 0 13.9629 0 9C0 4.03714 4.03714 0 9 0ZM9 1.28571C4.7318 1.28571 1.28572 4.73187 1.28572 9C1.28572 13.2681 4.73187 16.7143 9 16.7143C13.2681 16.7143 16.7143 13.2681 16.7143 9C16.7143 4.73187 13.2681 1.28571 9 1.28571Z" fill="#BEC1D7"/>
</svg>
