<svg width="13" height="18" viewBox="0 0 13 18" fill="none" xmlns="http://www.w3.org/2000/svg">
<path d="M6.5 12.1641C6.97235 12.1641 7.35526 11.7706 7.35526 11.2852C7.35526 10.7997 6.97235 10.4062 6.5 10.4062C6.02765 10.4062 5.64474 10.7997 5.64474 11.2852C5.64474 11.7706 6.02765 12.1641 6.5 12.1641Z" fill="#3A3F6C"/>
<path d="M11.3921 6.89062V5.02734C11.3921 2.25527 9.1975 0 6.5 0C3.8025 0 1.60789 2.25527 1.60789 5.02734V6.89062H0V11.3203C0 15.0036 2.91576 18 6.5 18C10.0842 18 13 15.0036 13 11.3203V6.89062H11.3921ZM7.01316 13.1449V14.7892H5.98684V13.1449C5.19795 12.915 4.61842 12.1686 4.61842 11.2852C4.61842 10.2189 5.46239 9.35156 6.5 9.35156C7.53761 9.35156 8.38158 10.2189 8.38158 11.2852C8.38158 12.1686 7.80205 12.915 7.01316 13.1449ZM10.3658 6.89062H2.63421V5.02734C2.63421 2.83676 4.36834 1.05469 6.5 1.05469C8.63166 1.05469 10.3658 2.83676 10.3658 5.02734V6.89062Z" fill="#3A3F6C"/>
</svg>
