<svg width="46" height="25" viewBox="0 0 46 25" fill="none" xmlns="http://www.w3.org/2000/svg">
<rect opacity="0.9" width="45.6526" height="15.5682" transform="matrix(1 0 0 -1 0 15.5684)" fill="url(#paint0_linear_168_1427)"/>
<path d="M3.57422 2.67969H8.73755C10.4177 2.67969 11.6778 3.13045 12.5178 4.03199C13.3579 4.93352 13.7779 6.25509 13.7779 7.99669V18.8766C13.7779 20.6181 13.3579 21.9397 12.5178 22.8412C11.6778 23.7428 10.4177 24.1935 8.73755 24.1935H3.57422V2.67969ZM8.67608 21.1201C9.22929 21.1201 9.64932 20.9562 9.93617 20.6284C10.2435 20.3006 10.3972 19.7678 10.3972 19.0302V7.84302C10.3972 7.1054 10.2435 6.57267 9.93617 6.24484C9.64932 5.91701 9.22929 5.7531 8.67608 5.7531H6.95497V21.1201H8.67608Z" fill="white"/>
<path d="M16.0599 2.67969H20.8852L23.0366 18.0775H23.098L25.2494 2.67969H30.0747V24.1935H26.8783V7.90448H26.8169L24.3581 24.1935H21.5306L19.0719 7.90448H19.0104V24.1935H16.0599V2.67969Z" fill="white"/>
<path d="M32.5975 2.67969H37.5764C39.2566 2.67969 40.5167 3.13045 41.3567 4.03199C42.1968 4.93352 42.6168 6.25509 42.6168 7.99669V10.1173C42.6168 11.8589 42.1968 13.1805 41.3567 14.082C40.5167 14.9836 39.2566 15.4343 37.5764 15.4343H35.9783V24.1935H32.5975V2.67969ZM37.5764 12.3609C38.1297 12.3609 38.5394 12.2073 38.8058 11.8999C39.0927 11.5926 39.2361 11.0701 39.2361 10.3325V7.78155C39.2361 7.04393 39.0927 6.52145 38.8058 6.21411C38.5394 5.90677 38.1297 5.7531 37.5764 5.7531H35.9783V12.3609H37.5764Z" fill="white"/>
<defs>
<linearGradient id="paint0_linear_168_1427" x1="4.87556" y1="-2.66842e-07" x2="41.9298" y2="15.6018" gradientUnits="userSpaceOnUse">
<stop stop-color="white" stop-opacity="0.35"/>
<stop offset="1" stop-color="white" stop-opacity="0"/>
</linearGradient>
</defs>
</svg>
