<svg width="99" height="25" viewBox="0 0 99 25" fill="none" xmlns="http://www.w3.org/2000/svg">
<rect opacity="0.9" width="45.6526" height="15.5682" transform="matrix(1 0 0 -1 0 15.5684)" fill="url(#paint0_linear_168_162)"/>
<path d="M3.57227 2.67969H8.73559C10.4157 2.67969 11.6758 3.13045 12.5159 4.03199C13.3559 4.93352 13.776 6.25509 13.776 7.99669V18.8766C13.776 20.6181 13.3559 21.9397 12.5159 22.8412C11.6758 23.7428 10.4157 24.1935 8.73559 24.1935H3.57227V2.67969ZM8.67412 21.1201C9.22734 21.1201 9.64737 20.9562 9.93422 20.6284C10.2416 20.3006 10.3952 19.7678 10.3952 19.0302V7.84302C10.3952 7.1054 10.2416 6.57267 9.93422 6.24484C9.64737 5.91701 9.22734 5.7531 8.67412 5.7531H6.95302V21.1201H8.67412Z" fill="white"/>
<path d="M16.058 2.67969H20.8832L23.0346 18.0775H23.0961L25.2475 2.67969H30.0727V24.1935H26.8764V7.90448H26.8149L24.3562 24.1935H21.5287L19.0699 7.90448H19.0085V24.1935H16.058V2.67969Z" fill="white"/>
<path d="M32.5956 2.67969H37.5745C39.2546 2.67969 40.5147 3.13045 41.3548 4.03199C42.1948 4.93352 42.6149 6.25509 42.6149 7.99669V10.1173C42.6149 11.8589 42.1948 13.1805 41.3548 14.082C40.5147 14.9836 39.2546 15.4343 37.5745 15.4343H35.9763V24.1935H32.5956V2.67969ZM37.5745 12.3609C38.1277 12.3609 38.5375 12.2073 38.8039 11.8999C39.0907 11.5926 39.2341 11.0701 39.2341 10.3325V7.78155C39.2341 7.04393 39.0907 6.52145 38.8039 6.21411C38.5375 5.90677 38.1277 5.7531 37.5745 5.7531H35.9763V12.3609H37.5745Z" fill="white"/>
<path fill-rule="evenodd" clip-rule="evenodd" d="M48.8457 2.22188H54.5797C56.3484 2.22188 57.8562 2.70151 58.9063 3.83216C59.9379 4.94292 60.3719 6.48719 60.3719 8.29293V10.3091C60.3719 12.1148 59.9379 13.6591 58.9063 14.7698C57.8562 15.9005 56.3484 16.3801 54.5797 16.3801H54.0813V24.7077H48.8457V2.22188ZM53.0653 15.3641H54.5797C56.1717 15.3641 57.3658 14.9355 58.1618 14.0784C58.9578 13.2213 59.3558 11.9649 59.3558 10.3091V8.29293C59.3558 6.63716 58.9578 5.38071 58.1618 4.52361C57.3658 3.6665 56.1717 3.23795 54.5797 3.23795H49.8618V23.6916H53.0653V15.3641ZM54.9879 11.3255L55.0004 11.312C55.0018 11.3104 55.0359 11.2698 55.0703 11.144C55.1075 11.008 55.1362 10.8039 55.1362 10.5136V8.08839C55.1362 7.79807 55.1075 7.59398 55.0703 7.45803C55.036 7.3324 55.0019 7.29176 55.0004 7.29003L54.9879 7.27655L54.9757 7.26239C54.9686 7.25422 54.9537 7.23832 54.9063 7.22046C54.8522 7.20011 54.7504 7.17597 54.5797 7.17597H54.0813V11.426H54.5797C54.7504 11.426 54.8522 11.4019 54.9063 11.3816C54.9537 11.3637 54.9686 11.3478 54.9757 11.3396L54.9879 11.3255ZM53.0653 12.4421V6.1599H54.5797C55.1039 6.1599 55.4922 6.306 55.7446 6.5982C56.0164 6.89039 56.1523 7.38712 56.1523 8.08839V10.5136C56.1523 11.2149 56.0164 11.7116 55.7446 12.0038C55.4922 12.296 55.1039 12.4421 54.5797 12.4421H53.0653ZM62.6195 23.3569L62.6158 23.3528C61.5761 22.2104 61.128 20.6563 61.128 18.8412V2.22188H66.3637V19.0749C66.3637 19.6431 66.4726 19.8595 66.5129 19.916C66.5741 19.9745 66.6923 20.0458 66.9785 20.0458C67.2936 20.0458 67.3772 19.9604 67.4068 19.9265L67.4182 19.9134L67.4301 19.9007C67.462 19.8666 67.5933 19.6749 67.5933 19.0749V2.22188H72.7125V18.8412C72.7125 20.6563 72.2644 22.2104 71.2247 23.3528L71.221 23.3569L71.2172 23.361C70.1565 24.5012 68.6671 24.9999 66.9202 24.9999C65.1733 24.9999 63.684 24.5012 62.6233 23.361L62.6195 23.3569ZM75.0277 23.3479L75.024 23.3438C74.0089 22.2012 73.5735 20.6506 73.5735 18.8412V16.6563H78.6344V19.0749C78.6344 19.6207 78.7522 19.8408 78.8131 19.9137C78.8447 19.9516 78.9344 20.0458 79.2783 20.0458C79.6264 20.0458 79.7131 19.9525 79.7357 19.9265L79.7385 19.9234C79.7905 19.8642 79.9223 19.637 79.9223 19.0165C79.9223 18.3179 79.7658 17.7549 79.4862 17.2919L79.4827 17.2862L79.4794 17.2805C79.1744 16.7603 78.554 16.0572 77.5325 15.1651L77.5273 15.1606C76.1694 13.9585 75.152 12.8187 74.5478 11.741L74.5457 11.7371L74.5435 11.7332C73.9296 10.6154 73.6317 9.37323 73.6317 8.02995C73.6317 6.2501 74.0819 4.72389 75.1232 3.60194C76.182 2.44107 77.6725 1.92969 79.4239 1.92969C81.1556 1.92969 82.6271 2.44159 83.6496 3.61544C84.6671 4.7414 85.0997 6.28538 85.0997 8.08839V9.95182H80.0388V7.88386C80.0388 7.27089 79.912 7.06742 79.8813 7.03226L79.8714 7.02082L79.8617 7.00908C79.8258 6.96532 79.7479 6.88377 79.4531 6.88377C79.1356 6.88377 79.0624 6.97088 79.0381 7.00054C78.9819 7.06923 78.8674 7.28548 78.8674 7.82542C78.8674 8.37406 79.0076 8.88127 79.2978 9.36517C79.6284 9.88276 80.2673 10.5824 81.286 11.4719M78.4338 9.9C78.0455 9.25718 77.8513 8.56565 77.8513 7.82542C77.8513 6.52028 78.3852 5.86771 79.4531 5.86771C79.9773 5.86771 80.3753 6.03328 80.6471 6.36444C80.9189 6.67611 81.0548 7.18259 81.0548 7.88386V8.93576H84.0836V8.08839C84.0836 8.0317 84.0831 7.97547 84.0822 7.9197C84.0559 6.34637 83.6583 5.13643 82.8896 4.28985C82.113 3.39379 80.9577 2.94575 79.4239 2.94575C77.8707 2.94575 76.6864 3.39379 75.871 4.28985C75.0555 5.16644 74.6478 6.41314 74.6478 8.02995C74.6478 9.21821 74.9099 10.2896 75.4341 11.2441C75.9583 12.1791 76.8806 13.231 78.2008 14.3998C79.2492 15.3154 79.9676 16.1043 80.3559 16.7666C80.7442 17.4094 80.9383 18.1594 80.9383 19.0165C80.9383 19.7373 80.7927 20.2632 80.5015 20.5944C80.2297 20.906 79.822 21.0619 79.2783 21.0619C78.1717 21.0619 77.6183 20.3996 77.6183 19.0749V17.6724H74.5896V18.8412C74.5896 20.497 74.9876 21.7729 75.7836 22.6689C76.5796 23.5455 77.7542 23.9838 79.3075 23.9838C80.8801 23.9838 82.0741 23.5358 82.8896 22.6397C83.7244 21.7437 84.1418 20.458 84.1418 18.7827C84.1418 17.4971 83.8895 16.377 83.3847 15.4225C82.8799 14.468 81.9576 13.4064 80.618 12.2376C79.5696 11.322 78.8415 10.5428 78.4338 9.9ZM81.286 11.4719C82.6666 12.6765 83.6942 13.8345 84.2828 14.9475C84.8785 16.0738 85.1579 17.363 85.1579 18.7827C85.1579 20.6169 84.7001 22.1842 83.637 23.328C82.5759 24.4912 81.0737 24.9999 79.3075 24.9999C77.562 24.9999 76.0754 24.5016 75.0314 23.352L75.0277 23.3479M86.1275 2.22188H91.3631V10.5495H92.7675V2.22188H98.0031V24.7077H92.7675V15.5035H91.3631V24.7077H86.1275V2.22188ZM90.3471 14.4875H93.7836V23.6916H96.9871V3.23795H93.7836V11.5655H90.3471V3.23795H87.1435V23.6916H90.3471V14.4875ZM63.3673 22.6689C64.1827 23.5455 65.367 23.9838 66.9202 23.9838C68.4735 23.9838 69.6578 23.5455 70.4732 22.6689C71.2887 21.7729 71.6964 20.497 71.6964 18.8412V3.23795H68.6094V19.0749C68.6094 19.7762 68.4638 20.2827 68.1725 20.5944C67.9007 20.906 67.5027 21.0619 66.9785 21.0619C66.4543 21.0619 66.0466 20.906 65.7553 20.5944C65.4835 20.2827 65.3476 19.7762 65.3476 19.0749V3.23795H62.1441V18.8412C62.1441 20.497 62.5518 21.7729 63.3673 22.6689Z" fill="white"/>
<defs>
<linearGradient id="paint0_linear_168_162" x1="4.87556" y1="-2.66842e-07" x2="41.9298" y2="15.6018" gradientUnits="userSpaceOnUse">
<stop stop-color="white" stop-opacity="0.35"/>
<stop offset="1" stop-color="white" stop-opacity="0"/>
</linearGradient>
</defs>
</svg>
