<svg width="20" height="22" viewBox="0 0 20 22" fill="none" xmlns="http://www.w3.org/2000/svg">
<path d="M1 21H19M3.59998 7.37988H2C1.45 7.37988 1 7.82988 1 8.37988V16.9999C1 17.5499 1.45 17.9999 2 17.9999H3.59998C4.14998 17.9999 4.59998 17.5499 4.59998 16.9999V8.37988C4.59998 7.82988 4.14998 7.37988 3.59998 7.37988ZM10.8001 4.18994H9.2002C8.6502 4.18994 8.2002 4.63994 8.2002 5.18994V16.9999C8.2002 17.5499 8.6502 17.9999 9.2002 17.9999H10.8001C11.3501 17.9999 11.8001 17.5499 11.8001 16.9999V5.18994C11.8001 4.63994 11.3501 4.18994 10.8001 4.18994ZM17.9999 1H16.3999C15.8499 1 15.3999 1.45 15.3999 2V17C15.3999 17.55 15.8499 18 16.3999 18H17.9999C18.5499 18 18.9999 17.55 18.9999 17V2C18.9999 1.45 18.5499 1 17.9999 1Z" stroke="white" stroke-width="1.5" stroke-linecap="round" stroke-linejoin="round"/>
</svg>
