<svg width="19" height="20" viewBox="0 0 19 20" fill="none" xmlns="http://www.w3.org/2000/svg">
<path d="M9.50144 0C6.46911 0 3.99033 2.33559 3.99033 5.19275C3.99033 8.04991 6.46911 10.3855 9.50144 10.3855C12.5338 10.3855 15.0126 8.04991 15.0126 5.19275C15.0126 2.33559 12.5338 0 9.50144 0Z" fill="white"/>
<path d="M18.9594 14.5352C18.815 14.195 18.6225 13.8776 18.4059 13.5828C17.2988 12.0408 15.5902 11.0204 13.6649 10.771C13.4243 10.7483 13.1595 10.7936 12.967 10.9297C11.9562 11.6326 10.753 11.9954 9.50149 11.9954C8.25003 11.9954 7.04675 11.6326 6.03598 10.9297C5.84343 10.7936 5.5787 10.7256 5.33806 10.771C3.41278 11.0204 1.68005 12.0408 0.597091 13.5828C0.380499 13.8776 0.187953 14.2177 0.043589 14.5352C-0.0285929 14.6712 -0.00454766 14.8299 0.0676342 14.966C0.260181 15.2835 0.500818 15.601 0.717409 15.873C1.05432 16.3039 1.41532 16.6894 1.82446 17.0522C2.16137 17.3696 2.54642 17.6644 2.93151 17.9592C4.8327 19.2971 7.11898 20 9.47745 20C11.8359 20 14.1222 19.297 16.0234 17.9592C16.4084 17.6871 16.7935 17.3696 17.1304 17.0522C17.5155 16.6894 17.9005 16.3039 18.2375 15.873C18.4781 15.5783 18.6948 15.2835 18.8873 14.966C19.0075 14.8299 19.0316 14.6712 18.9594 14.5352Z" fill="white"/>
</svg>
