<svg width="22" height="22" viewBox="0 0 22 22" fill="none" xmlns="http://www.w3.org/2000/svg">
<path d="M5.70001 17H3.15002C1.72002 17 1 16.28 1 14.85V3.15002C1 1.72002 1.72002 1 3.15002 1H7.45001C8.88001 1 9.6 1.72002 9.6 3.15002V5M12.3999 5V3.15002C12.3999 1.72002 13.1199 1 14.5499 1H18.8499C20.2799 1 20.9999 1.72002 20.9999 3.15002V14.85C20.9999 16.28 20.2799 17 18.8499 17H16.3699M9 10H13M9 13H13M11 21V18M16.3697 7.41998V18.58C16.3697 20.19 15.5698 21 13.9598 21H8.11969C6.50969 21 5.69971 20.19 5.69971 18.58V7.41998C5.69971 5.80998 6.50969 5 8.11969 5H13.9598C15.5698 5 16.3697 5.80998 16.3697 7.41998Z" stroke="white" stroke-width="1.5" stroke-miterlimit="10" stroke-linecap="round" stroke-linejoin="round"/>
</svg>
