<svg width="13" height="13" viewBox="0 0 13 13" fill="none" xmlns="http://www.w3.org/2000/svg">
<path d="M12.6921 11.1824L9.70336 8.15249C10.2112 7.33296 10.5059 6.36432 10.5059 5.32479C10.5059 2.38382 8.15397 0 5.25284 0C2.35172 0 0 2.38382 0 5.32479C0 8.26587 2.35161 10.6495 5.25284 10.6495C6.36884 10.6495 7.40253 10.2958 8.25313 9.69481L11.2063 12.6887C11.4116 12.8965 11.6806 13 11.9492 13C12.2183 13 12.4869 12.8965 12.6925 12.6887C13.1026 12.2726 13.1026 11.5985 12.6921 11.1824ZM5.25284 8.92431C3.29195 8.92431 1.70217 7.31287 1.70217 5.32501C1.70217 3.33715 3.29195 1.7256 5.25284 1.7256C7.21385 1.7256 8.80352 3.33715 8.80352 5.32501C8.80352 7.31287 7.21385 8.92431 5.25284 8.92431Z" fill="#D0D3E4"/>
</svg>
