<svg width="15" height="18" viewBox="0 0 15 18" fill="none" xmlns="http://www.w3.org/2000/svg">
<path d="M7.50114 0C5.1072 0 3.15026 2.10203 3.15026 4.67348C3.15026 7.24492 5.1072 9.34695 7.50114 9.34695C9.89509 9.34695 11.852 7.24492 11.852 4.67348C11.852 2.10203 9.89509 0 7.50114 0Z" fill="#3A3F6C"/>
<path d="M14.9679 13.0816C14.8539 12.7755 14.702 12.4898 14.531 12.2245C13.657 10.8367 12.3081 9.91836 10.7881 9.69387C10.5981 9.67348 10.3891 9.71426 10.2371 9.83672C9.43913 10.4694 8.48917 10.7959 7.50118 10.7959C6.51318 10.7959 5.56323 10.4694 4.76524 9.83672C4.61323 9.71426 4.40424 9.65305 4.21426 9.69387C2.6943 9.91836 1.32636 10.8367 0.471388 12.2245C0.300394 12.4898 0.148384 12.7959 0.0344124 13.0816C-0.0225734 13.2041 -0.00359026 13.347 0.0533955 13.4694C0.205406 13.7551 0.395382 14.0409 0.566376 14.2857C0.832358 14.6735 1.11736 15.0204 1.44036 15.347C1.70634 15.6327 2.01033 15.898 2.31435 16.1633C3.81529 17.3674 5.62025 18 7.48219 18C9.34414 18 11.1491 17.3673 12.65 16.1633C12.954 15.9184 13.258 15.6327 13.524 15.347C13.828 15.0204 14.132 14.6735 14.398 14.2857C14.588 14.0204 14.759 13.7551 14.911 13.4694C15.0059 13.347 15.0249 13.2041 14.9679 13.0816Z" fill="#3A3F6C"/>
</svg>
