<svg width="13" height="14" viewBox="0 0 13 14" fill="none" xmlns="http://www.w3.org/2000/svg">
<path d="M12.0635 3.85697C12.3226 3.85697 12.5327 3.61217 12.5327 3.31018V2.73605C12.5327 1.22739 11.4794 0 10.1846 0C10.1846 0 2.8287 0.00128497 2.81056 0.00377288C2.19139 0.0289801 1.59662 0.338575 1.1679 0.86202C0.728458 1.39853 0.499363 2.09635 0.520926 2.83056C0.520034 2.84448 0.519565 10.7172 0.519565 10.7172C0.519565 12.5273 1.78343 14 3.33693 14H10.1846C11.4794 14 12.5327 12.7726 12.5327 11.264V7.11248C12.5327 5.60382 11.4794 4.37643 10.1846 4.37643H2.86586C2.11244 4.37643 1.49474 3.69026 1.45962 2.81429C1.44176 2.36888 1.57928 1.94369 1.84681 1.61703C2.11821 1.28568 2.49937 1.09567 2.89252 1.09567C2.90638 1.09567 10.1846 1.09359 10.1846 1.09359C10.9618 1.09359 11.5942 1.83039 11.5942 2.73605V3.31018C11.5942 3.61217 11.8043 3.85697 12.0635 3.85697ZM2.86586 5.47002H10.1846C10.9618 5.47002 11.5942 6.20682 11.5942 7.11248V11.264C11.5942 12.1696 10.9618 12.9064 10.1846 12.9064H3.33693C2.30094 12.9064 1.45809 11.9243 1.45809 10.7172V4.92544C1.85059 5.268 2.33827 5.47002 2.86586 5.47002ZM10.6557 9.18821C10.6557 9.56569 10.3931 9.87171 10.0691 9.87171C9.29101 9.8357 9.29122 8.54059 10.0691 8.50472C10.3931 8.50472 10.6557 8.81073 10.6557 9.18821ZM10.6557 2.73605C10.6557 2.43405 10.4456 2.18925 10.1864 2.18925H2.86589C2.24327 2.21812 2.24374 3.25422 2.86589 3.28284H10.1864C10.4456 3.28284 10.6557 3.03804 10.6557 2.73605Z" fill="white"/>
</svg>
